<svg width="179" height="180" viewBox="0 0 179 180" fill="none" xmlns="http://www.w3.org/2000/svg">
<rect x="0.312256" y="0.827225" width="178.256" height="178.256" rx="22" fill="#FBF9CE"/>
<path fill-rule="evenodd" clip-rule="evenodd" d="M118.227 135.911C117.947 135.972 117.657 135.972 117.376 135.911H94.4779V144.172H118.555V135.911H118.227ZM94.5291 131.718H116.997C118.801 129.925 120.759 128.059 122.809 126.163C127.409 121.947 131.791 117.5 135.939 112.838C141.064 106.893 141.669 104.823 143.227 99.0006C143.524 97.8936 143.852 96.6636 144.252 95.1364L146.937 85.6961V85.5936C148.372 81.3912 148.485 78.6134 147.88 77.0144C147.77 76.6064 147.529 76.2461 147.193 75.9894C146.953 75.8454 146.671 75.7875 146.394 75.8254C145.523 75.9776 144.736 76.44 144.18 77.1272L136.236 96.1101C136.169 96.2837 136.075 96.4462 135.959 96.5918C135.459 97.503 134.827 98.3354 134.084 99.0621L119.877 114.847C119.508 115.255 118.991 115.499 118.441 115.526C117.891 115.553 117.354 115.36 116.946 114.991C116.538 114.621 116.294 114.104 116.267 113.554C116.24 113.005 116.433 112.467 116.802 112.059L130.957 96.2844C131.017 96.2076 131.082 96.1356 131.152 96.0691C132.608 94.6751 133.079 93.1684 132.823 92.0819C132.759 91.7713 132.606 91.4862 132.382 91.2619C132.169 91.0704 131.899 90.955 131.613 90.9339C130.363 90.8006 128.538 91.7231 126.232 94.4086C126.168 94.4878 126.096 94.56 126.017 94.6239L120.533 99.4721C116.715 103.352 112.247 106.533 107.331 108.871C106.368 109.374 105.281 109.896 103.98 110.655C103.443 110.959 102.929 111.302 102.442 111.68C101.899 112.09 101.417 112.51 100.905 112.92C98.9556 114.381 97.4106 116.314 96.4151 118.537C95.6311 120.966 95.1525 123.483 94.9904 126.03C94.8366 127.321 94.7239 128.613 94.6316 129.894C94.6316 130.519 94.5599 131.134 94.5291 131.729V131.718ZM84.3407 131.718H61.8727C60.0688 129.925 58.1008 128.059 56.0918 126.163C51.4915 121.947 47.1091 117.5 42.9616 112.838C37.7853 106.893 37.2318 104.823 35.6739 99.0006C35.3766 97.8628 35.0486 96.6328 34.6591 95.1466L31.9326 85.6654V85.5629C30.4976 81.3604 30.3849 78.5827 30.9896 76.9837C31.0993 76.5757 31.3407 76.2153 31.6764 75.9587C31.9164 75.8146 32.1985 75.7568 32.4759 75.7947C33.3402 75.9618 34.1153 76.4349 34.6591 77.1272L42.6336 96.1101C42.701 96.2837 42.7943 96.4462 42.9103 96.5918C43.4264 97.5064 44.0758 98.339 44.8373 99.0621L58.9925 114.847C59.3622 115.255 59.8788 115.499 60.4285 115.526C60.9783 115.553 61.5162 115.36 61.924 114.991C62.3318 114.621 62.576 114.104 62.6029 113.554C62.6298 113.005 62.4372 112.467 62.0675 112.059L47.9841 96.2844C47.9249 96.2076 47.8598 96.1356 47.7893 96.0691C46.3338 94.6751 45.8623 93.1684 46.1186 92.0819C46.1821 91.7713 46.3353 91.4862 46.5593 91.2619C46.7721 91.0704 47.0425 90.955 47.3281 90.9339C48.5786 90.8006 50.403 91.7231 52.7093 94.4086C52.7731 94.4878 52.8453 94.56 52.9245 94.6239L58.4083 99.4721C62.2108 103.347 66.6613 106.528 71.559 108.871C72.5225 109.374 73.609 109.896 74.9107 110.655C75.4472 110.959 75.961 111.302 76.4482 111.68C76.9914 112.09 77.4732 112.51 77.9857 112.92C79.9346 114.381 81.4796 116.314 82.4752 118.537C83.2444 120.964 83.7092 123.478 83.8589 126.019C84.0127 127.311 84.1254 128.602 84.2177 129.884C84.2177 130.509 84.2894 131.124 84.3202 131.718H84.3407ZM60.6428 135.911C60.923 135.972 61.2132 135.972 61.4935 135.911H84.3919V144.172H60.284V135.911H60.6428ZM56.6453 132.436C56.3049 132.816 56.1185 133.309 56.1225 133.82V146.263C56.1225 146.807 56.3385 147.328 56.7229 147.713C57.1074 148.097 57.6288 148.313 58.1725 148.313H86.4829C87.0266 148.313 87.548 148.097 87.9325 147.713C88.3169 147.328 88.5329 146.807 88.5329 146.263V133.697C88.5329 132.364 88.4406 130.929 88.3484 129.597C88.2561 128.264 88.1331 126.88 87.9794 125.497C87.7952 122.581 87.223 119.703 86.2779 116.938C85.0459 114.068 83.0935 111.565 80.6097 109.671C80.0562 109.199 79.4924 108.728 78.8979 108.287C78.2494 107.788 77.5641 107.34 76.8479 106.944C75.6179 106.268 74.4699 105.663 73.4244 105.12C68.9172 102.948 64.8186 100.014 61.309 96.4484L61.1757 96.3254L55.8253 91.6104C52.5555 87.7769 49.3575 86.4854 46.8976 86.7724C45.7601 86.8756 44.6842 87.3347 43.8226 88.0844L38.4003 75.2207C38.3212 75.0315 38.2141 74.8553 38.0826 74.6979C36.8017 73.0462 34.9255 71.961 32.8551 71.6742C31.6335 71.535 30.4015 71.8249 29.3701 72.4942C28.2771 73.2351 27.4592 74.316 27.0434 75.5692C26.1414 77.9779 26.1619 81.7192 27.9249 86.8441L30.5591 96.2434C30.9486 97.5963 31.2971 98.8878 31.5841 100.046C33.3266 106.555 33.9416 108.861 39.7841 115.544C44.0219 120.32 48.5037 124.874 53.2115 129.187L56.6248 132.436H56.6453ZM122.245 132.436C122.585 132.816 122.772 133.309 122.768 133.82V146.263C122.768 146.807 122.552 147.328 122.167 147.713C121.783 148.097 121.261 148.313 120.718 148.313H92.3869C91.8432 148.313 91.3218 148.097 90.9373 147.713C90.5529 147.328 90.3369 146.807 90.3369 146.263V133.697C90.3318 133.625 90.3318 133.553 90.3369 133.481C90.3369 132.115 90.3881 130.823 90.4906 129.607C90.5829 128.244 90.7161 126.891 90.8699 125.507C91.054 122.591 91.6263 119.713 92.5714 116.948C93.8007 114.097 95.7419 111.608 98.2088 109.722C98.7623 109.251 99.3261 108.779 99.9206 108.338C100.569 107.84 101.254 107.391 101.971 106.996C103.201 106.319 104.349 105.714 105.394 105.171C109.938 102.993 114.069 100.041 117.602 96.4484L117.735 96.3254L123.085 91.6104C126.355 87.7769 129.553 86.4854 132.013 86.7724C133.151 86.8756 134.227 87.3347 135.088 88.0844L140.49 75.2207C140.569 75.0315 140.676 74.8553 140.808 74.6979C142.086 73.0485 143.958 71.9635 146.025 71.6742C147.247 71.535 148.479 71.8249 149.51 72.4942C150.603 73.2351 151.421 74.316 151.837 75.5692C152.739 77.9779 152.718 81.7192 150.955 86.8441L148.29 96.2331C147.901 97.5861 147.552 98.8776 147.265 100.036C145.523 106.545 144.908 108.851 139.065 115.534C134.827 120.31 130.346 124.863 125.638 129.176L122.224 132.426L122.245 132.436Z" fill="#606060"/>
<path fill-rule="evenodd" clip-rule="evenodd" d="M89.4144 31.5969C90.5012 36.7107 92.1691 41.6834 94.3856 46.4183C96.6964 50.7459 99.5483 54.7619 102.873 58.3698L104.502 60.1943C109.484 65.719 111.944 71.2642 111.944 76.7889C111.982 79.7259 111.413 82.6391 110.274 85.3463C109.135 88.0535 107.449 90.4966 105.322 92.5226C103.236 94.609 100.759 96.2641 98.0331 97.3932C95.3071 98.5224 92.3854 99.1035 89.4349 99.1035C86.4843 99.1035 83.5626 98.5224 80.8366 97.3932C78.1106 96.2641 75.6338 94.609 73.5474 92.5226C71.4162 90.4991 69.726 88.057 68.5831 85.3495C67.4401 82.642 66.8689 79.7276 66.9055 76.7889C66.9055 71.2642 69.3757 65.719 74.3469 60.1943L75.9869 58.3698C79.3017 54.7566 82.1496 50.7413 84.4636 46.4183C86.6851 41.6873 88.3466 36.7132 89.4144 31.5969ZM74.5109 73.4987C74.4566 72.8966 74.6436 72.2975 75.0309 71.8333C75.4183 71.369 75.9742 71.0777 76.5763 71.0233C77.1784 70.969 77.7775 71.156 78.2417 71.5434C78.7059 71.9307 78.9973 72.4866 79.0517 73.0887C79.2551 75.939 80.0068 78.7233 81.2656 81.2887C82.5508 83.7614 84.5179 85.8139 86.9339 87.2029C87.4147 87.5282 87.7538 88.0244 87.8821 88.5906C88.0105 89.1568 87.9186 89.7506 87.6251 90.2516C87.3316 90.7525 86.8585 91.1229 86.3018 91.2877C85.7451 91.4525 85.1465 91.3993 84.6276 91.1389C81.4682 89.3407 78.8923 86.6723 77.2067 83.4514C75.6566 80.3443 74.7337 76.9624 74.4904 73.4987H74.5109Z" fill="#F06E68"/>
</svg>
